<svg width="923" height="1024" viewBox="0 0 923 1024" fill="none" xmlns="http://www.w3.org/2000/svg">
<rect x="2.68622" width="920.314" height="1024" fill="#FCF8D9"/>
<g clip-path="url(#clip0_361_771)">
<mask id="mask0_361_771" style="mask-type:luminance" maskUnits="userSpaceOnUse" x="0" y="317" width="917" height="600">
<path d="M916.078 317H0V917H916.078V317Z" fill="white"/>
</mask>
<g mask="url(#mask0_361_771)">
<path d="M770.78 584.204C770.78 584.204 768.47 607.95 762.694 620.329C756.918 632.721 744.198 643.037 743.043 648.201C741.888 653.366 739.578 698.781 739.578 698.781" stroke="#363636" stroke-linecap="round" stroke-linejoin="round"/>
<path d="M739.578 712.186V731.805" stroke="#363636" stroke-linecap="round" stroke-linejoin="round"/>
<path d="M187.082 604.633C187.082 604.633 189.392 640.758 215.974 658.302" stroke="#363636" stroke-linecap="round" stroke-linejoin="round"/>
<path d="M185.927 594.317C185.927 594.317 185.927 579.862 189.392 569.546" stroke="#363636" stroke-linecap="round" stroke-linejoin="round"/>
<path d="M904.646 866.572C880.905 871.116 880.905 899.874 863.963 896.849C847.007 893.824 884.304 869.597 892.789 837.801C901.26 806.005 867.362 784.816 857.191 806.005C847.021 827.194 852.106 878.673 845.321 875.647C838.536 872.622 850.406 769.665 823.28 748.476C796.154 727.274 772.414 751.501 780.898 795.41C789.369 839.32 826.666 878.673 813.11 881.71C799.553 884.736 784.284 836.295 763.942 816.612C743.601 796.929 726.646 812.068 740.202 840.839C753.758 869.61 816.495 915.025 816.495 915.025C816.495 915.025 803.111 918.443 778.269 899.95C753.427 881.457 741.756 881.799 736.856 889.191C731.957 896.583 742.499 904.317 752.67 907.342" stroke="#363636" stroke-linecap="round" stroke-linejoin="round"/>
<path d="M182.461 754.513C182.461 754.513 214.819 759.677 212.509 772.057C210.198 784.449 169.741 783.411 137.384 799.929C105.026 816.447 135.073 837.092 128.142 856.699C121.212 876.305 41.4528 903.152 41.4528 903.152" stroke="#363636" stroke-linecap="round" stroke-linejoin="round"/>
<path d="M430.527 519.852C440.3 517.27 450.895 514.093 459.34 508.916C476.242 498.575 473.109 493.777 463.629 479.246C436.648 437.919 530.76 426.666 557.316 424.325" stroke="#363636" stroke-linecap="round" stroke-linejoin="round"/>
<path d="M849.974 381.863C852.417 377.028 855.604 371.762 861.088 368.775C866.983 365.56 873.223 364.294 878.88 362.585" stroke="#363636" stroke-linecap="round" stroke-linejoin="round"/>
<path d="M686.746 407.806C686.746 407.806 781.827 414.882 813.534 400.731C827.662 394.427 832.601 383.896 835.854 373.023" stroke="#363636" stroke-linecap="round" stroke-linejoin="round"/>
<path d="M656.779 427.033C656.779 427.033 647.63 436.83 647.63 445.817C647.63 454.804 651.282 467.044 653.114 479.297C654.946 491.55 643.05 513.599 643.05 513.599C643.05 513.599 659.049 502.714 662.249 497.271C665.449 491.828 668.649 481.753 668.649 481.753C668.649 481.753 676.881 476.031 677.797 469.5C678.713 462.969 680.546 458.88 680.546 450.716C680.546 442.552 674.146 422.958 656.765 427.033H656.779Z" fill="white"/>
<path d="M556.2 520.953L601.915 528.308L611.98 518.511L604.664 515.245C604.664 515.245 562.6 518.511 556.2 520.966V520.953Z" fill="white"/>
<path d="M443.725 817.371V932.506H462.925V802.663C462.925 802.663 455.609 811.65 443.725 817.359V817.371Z" fill="white"/>
<path d="M431.829 672.01C431.829 672.01 440.977 702.224 437.312 715.287C433.661 728.35 428.164 739.78 423.597 744.678C419.029 749.577 397.081 768.361 392.5 768.361C392.5 768.361 419.016 765.905 435.48 753.665C451.944 741.413 465.66 721.818 467.479 704.667C469.312 687.516 460.163 667.922 460.163 667.922H439.131L431.815 672.01H431.829Z" fill="white"/>
<path d="M371.482 515.232L339.483 522.586C339.483 522.586 400.746 535.649 428.177 560.154L458.357 555.256C458.357 555.256 438.242 529.13 371.482 515.245V515.232Z" fill="white"/>
<path d="M658.611 512.777C658.611 512.777 662.262 516.865 664.095 525.029C665.927 533.193 665.927 536.459 665.927 536.459C665.927 536.459 675.075 534.004 694.275 539.725C713.474 545.446 733.59 547.079 721.706 549.522C709.823 551.965 690.61 546.256 706.158 552.788C721.706 559.319 731.757 553.61 735.422 562.585C739.073 571.572 739.99 602.596 733.59 604.228C727.19 605.861 708.907 597.697 708.907 605.051C708.907 612.405 723.539 614.848 721.706 625.468C719.874 636.088 718.055 642.619 710.739 650.783C703.423 658.948 693.358 649.961 685.14 648.328C676.907 646.695 688.791 654.859 690.623 667.112C692.456 679.365 679.656 686.706 679.656 686.706C679.656 686.706 665.94 666.289 667.772 675.276C669.605 684.263 675.088 693.237 674.172 698.959C673.256 704.68 657.708 700.591 654.973 691.605C652.224 682.618 637.712 666.656 635.773 674.453C633.835 682.263 644.922 695.68 645.838 705.49C646.754 715.287 636.689 724.274 636.689 724.274L624.806 723.451H617.49C617.49 723.451 615.658 734.071 605.607 742.235C595.542 750.4 590.058 751.222 601.039 756.121C612.006 761.019 639.451 762.652 664.134 762.652C688.818 762.652 713.514 746.324 718.081 741.425C722.649 736.527 718.998 722.641 718.998 712.034C718.998 701.427 729.965 651.606 729.965 651.606C729.965 651.606 754.648 612.405 756.48 599.343C758.313 586.28 751.076 560.015 748.248 556.066C745.42 552.117 739.1 543.003 727.216 535.649C715.333 528.295 667.772 514.422 667.772 514.422C667.772 514.422 671.424 511.967 667.772 507.891C664.121 503.802 660.456 502.992 660.456 502.992L658.624 512.789L658.611 512.777Z" fill="white"/>
<g style="mix-blend-mode:multiply">
<path d="M563.41 518.371C563.41 518.371 544.529 519.118 537.187 529.789C529.844 540.459 525.25 571.622 524.321 581.47C523.405 591.318 505.944 615.101 510.538 622.481" stroke="#363636" stroke-linecap="round" stroke-linejoin="round"/>
<path d="M496.756 686.098C496.756 686.098 496.756 702.25 502.413 708.313C508.069 714.376 511.455 716.388 525.025 716.388C538.594 716.388 537.466 710.325 537.466 710.325" stroke="#363636" stroke-linecap="round" stroke-linejoin="round"/>
<path d="M544.104 724.464C544.104 724.464 538.82 776.36 540.148 794.043C541.462 811.739 548.074 931.923 548.074 931.923H722.397C722.397 931.923 725.039 843.573 725.039 805.84C725.039 768.108 715.797 733.894 715.797 733.894C715.797 733.894 615.432 756.298 544.118 724.464H544.104Z" fill="#363636"/>
<path d="M661.2 515.84C661.2 515.84 682.75 519.257 696.678 524.586C710.606 529.915 742.419 538.801 745.407 552.117C748.394 565.433 742.419 592.077 736.458 621.392C730.496 650.695 721.64 673.213 720.551 689.769C718.161 725.844 722.237 734.679 715.585 741.273C707.154 749.627 670.839 763.475 626.081 759.918C581.335 756.361 544.928 740.387 539.962 721.73C534.996 703.085 545.923 665.023 539.962 612.62C534 560.23 545.525 521.017 563.437 518.346C581.335 515.688 629.068 513.903 639.013 513.903C648.958 513.903 661.226 515.814 661.226 515.814L661.2 515.84Z" fill="white" stroke="#363636" stroke-linecap="round" stroke-linejoin="round"/>
<path d="M605.965 559.585L614.011 580.116C614.011 580.116 592.169 671.491 585.265 689.972C580.764 702.047 577.723 718.502 576.157 728.464C575.28 734.033 576.568 739.691 579.781 744.526L586.221 754.222C588.412 757.526 593.325 758.424 596.803 756.146L607.306 749.26C613.002 745.526 616.494 739.678 616.813 733.375L624.354 583.191L642.744 564.711L624.354 539.041L605.965 559.572V559.585Z" fill="#C2B7BC"/>
<path d="M613.321 514.017C613.321 514.017 609.683 518.068 604.239 526.991C598.795 535.915 591.944 563.977 597.401 566.407C602.845 568.838 625.55 555.053 625.55 555.053C625.55 555.053 630.09 574.508 640.991 572.888C651.892 571.268 670.043 535.586 669.14 520.181C668.237 504.777 662.78 501.537 653.698 499.904C644.616 498.284 613.321 514.004 613.321 514.004V514.017Z" fill="white" stroke="#363636" stroke-linecap="round" stroke-linejoin="round"/>
<path d="M612.83 517.751C612.83 517.751 618.273 526.675 619.19 536.396C619.867 543.623 622.828 550.99 626.452 550.99C630.077 550.99 659.142 516.118 659.142 509.637C659.142 503.157 657.323 487.74 657.323 487.74C657.323 487.74 622.814 515.308 612.83 517.738V517.751Z" fill="white" stroke="#363636" stroke-linecap="round" stroke-linejoin="round"/>
<g style="mix-blend-mode:multiply">
<path d="M654.681 507.283C654.681 507.283 644.045 523.434 634.472 529.13C624.899 534.826 618.512 531.029 618.512 531.029L611.409 517.346C611.409 517.346 645.107 512.979 654.681 507.271V507.283Z" fill="#C2B7BC"/>
</g>
<path d="M604.358 410.857C598.994 413.515 592.979 416.654 590.908 422.16C585.464 436.615 586.54 462.994 589.394 480.854C590.961 490.689 594.905 510.346 611.409 517.359C633.104 526.586 656.393 508.22 665.489 491.815C676.695 471.601 675.845 444.653 668.476 423.553C665.807 415.907 660.695 410.907 652.198 408.401C637.061 403.933 618.605 403.794 604.372 410.857H604.358Z" fill="white" stroke="#363636" stroke-linecap="round" stroke-linejoin="round"/>
<path d="M608.249 456.273C608.249 456.273 607.465 475.93 607.465 482.955C607.465 489.98 610.612 491.385 615.326 491.385C620.039 491.385 627.116 482.955 627.116 482.955" fill="white"/>
<path d="M608.249 456.273C608.249 456.273 607.465 475.93 607.465 482.955C607.465 489.98 610.612 491.385 615.326 491.385C620.039 491.385 627.116 482.955 627.116 482.955" stroke="#363636" stroke-linecap="round" stroke-linejoin="round"/>
<path d="M626.413 449.589C626.413 449.589 634.804 448.539 642.452 453.108Z" fill="white"/>
<path d="M626.413 449.589C626.413 449.589 634.804 448.539 642.452 453.108" stroke="#363636" stroke-linecap="round" stroke-linejoin="round"/>
<path d="M606.629 444.197C606.629 444.197 598.662 442.944 594.201 447.855Z" fill="white"/>
<path d="M606.629 444.197C606.629 444.197 598.662 442.944 594.201 447.855" stroke="#363636" stroke-linecap="round" stroke-linejoin="round"/>
<path d="M626.187 466.184C626.187 466.184 630.622 469.753 642.067 467.5Z" fill="white"/>
<path d="M626.187 466.184C626.187 466.184 630.622 469.753 642.067 467.5" stroke="#363636" stroke-linecap="round" stroke-linejoin="round"/>
<path d="M592.528 463.298C592.528 463.298 598.038 468.918 604.319 465.399Z" fill="white"/>
<path d="M592.528 463.298C592.528 463.298 598.038 468.918 604.319 465.399" stroke="#363636" stroke-linecap="round" stroke-linejoin="round"/>
<path d="M668.463 423.553C668.463 423.553 670.375 395.187 649.927 388.87" stroke="#363636" stroke-miterlimit="10"/>
<path d="M673.508 423.983C673.508 423.983 656.991 392.389 627.913 389.579" stroke="#363636" stroke-miterlimit="10" stroke-linecap="round"/>
<path d="M682.165 435.21C679.802 425.375 673.522 423.97 673.522 423.97C673.522 423.97 668.396 413.692 659.726 405.743C659.872 405.743 660.005 405.718 660.151 405.718C660.151 405.718 658.677 404.237 655.49 402.3C653.512 400.883 651.388 399.655 649.144 398.705C647.657 398.073 646.037 397.592 644.311 397.237C637.446 394.946 628.178 393.085 616.122 393.085C584.668 393.085 567.38 407.123 565.8 419.768C564.233 432.4 583.884 419.768 581.521 421.869C579.157 423.97 564.22 432.4 574.444 438.716C580.804 442.64 588.027 441.134 594.254 437.856C597.6 436.096 608.169 430.97 610.068 428.16C608.66 430.236 606.151 433.552 602.738 436.603C597.228 441.514 592.515 442.919 592.515 442.919C592.515 442.919 601.955 443.615 611.382 437.299C620.823 430.983 634.18 424.666 646.767 424.666C659.354 424.666 656.991 434.501 656.991 434.501C656.991 434.501 648.347 443.628 653.844 448.539C659.341 453.45 663.284 453.45 664.068 455.564C664.851 457.665 663.284 463.285 665.635 463.285C667.985 463.285 667.201 452.754 671.145 452.754C675.088 452.754 679.789 459.07 679.789 459.07C679.789 459.07 684.502 445.033 682.152 435.198L682.165 435.21Z" fill="#363636"/>
<path d="M664.081 466.108C664.081 466.108 667.228 450.665 675.872 450.665C684.515 450.665 681.382 460.5 678.235 470.323C675.088 480.158 667.228 481.55 667.228 481.55" fill="white"/>
<path d="M664.081 466.108C664.081 466.108 667.228 450.665 675.872 450.665C684.515 450.665 681.382 460.5 678.235 470.323C675.088 480.158 667.228 481.55 667.228 481.55" stroke="#363636" stroke-linecap="round" stroke-linejoin="round"/>
<path d="M715.094 557.749C715.094 557.749 682.125 572.774 676.828 591.166C671.53 609.557 652.928 646.758 645.532 652.568C645.532 652.568 635.016 660.467 645.944 665.795C656.885 671.124 666.83 691.554 670.8 701.313C674.783 711.085 690.477 706.73 690.982 699.642C691.486 692.554 699.201 682.314 706.463 678.276C713.726 674.238 743.694 631.455 753.413 607.089C763.132 582.723 749.271 553.458 740.348 552.952" fill="white"/>
<path d="M715.094 557.749C715.094 557.749 682.125 572.774 676.828 591.166C671.53 609.557 652.928 646.758 645.532 652.568C645.532 652.568 635.016 660.467 645.944 665.795C656.885 671.124 666.83 691.554 670.8 701.313C674.783 711.085 690.477 706.73 690.982 699.642C691.486 692.554 699.201 682.314 706.463 678.276C713.726 674.238 743.694 631.455 753.413 607.089C763.132 582.723 749.271 553.458 740.348 552.952" stroke="#363636" stroke-linecap="round" stroke-linejoin="round"/>
<path d="M494.406 571.154L508.746 642.202C509.264 644.999 512.212 646.91 515.358 646.48C518.691 646.024 520.895 643.151 520.165 640.214L505.387 569.243C504.736 566.648 502.187 565.711 499.253 566.141C496.199 566.597 493.902 568.42 494.406 571.141V571.154Z" fill="white" stroke="#363636" stroke-linecap="round" stroke-linejoin="round"/>
<path d="M514.163 605.266C514.163 605.266 497.911 598.672 494.459 599.545C491.007 600.431 490.025 609.659 490.025 609.659C490.025 609.659 490.516 613.62 491.99 618.899C493.463 624.177 498.389 632.101 503.807 634.733C509.224 637.379 517.111 637.379 520.059 634.733C523.006 632.088 521.041 621.975 521.041 621.975" fill="white"/>
<path d="M514.163 605.266C514.163 605.266 497.911 598.672 494.459 599.545C491.007 600.431 490.025 609.659 490.025 609.659C490.025 609.659 490.516 613.62 491.99 618.899C493.463 624.177 498.389 632.101 503.807 634.733C509.224 637.379 517.111 637.379 520.059 634.733C523.006 632.088 521.041 621.975 521.041 621.975" stroke="#363636" stroke-linecap="round" stroke-linejoin="round"/>
<path d="M522.05 595.583C522.05 595.583 513.858 595.419 513.858 601.165C513.858 606.912 513.141 617.127 515.292 619.051C517.443 620.962 525.303 620.962 526.737 614.582C527.6 610.735 528.052 605.557 528.291 602.051C528.49 598.988 526.18 596.09 522.781 595.634C522.528 595.596 522.289 595.583 522.05 595.583Z" fill="white" stroke="#363636" stroke-linecap="round" stroke-linejoin="round"/>
<path d="M472.498 541.56L480.093 579.938C482.005 590.166 492.76 597.14 504.245 595.583C516.421 593.938 524.48 583.432 521.811 572.698L512.623 534.598C510.26 525.13 500.939 521.687 490.224 523.282C479.084 524.941 470.653 531.611 472.511 541.56H472.498Z" fill="white" stroke="#363636" stroke-linecap="round" stroke-linejoin="round"/>
<g style="mix-blend-mode:multiply">
<path d="M493.49 522.966C492.414 523.017 491.326 523.118 490.21 523.282C479.07 524.941 470.639 531.611 472.498 541.56L480.093 579.938C482.005 590.166 492.76 597.14 504.245 595.583C505.997 595.343 507.657 594.912 509.211 594.33L493.49 522.979V522.966Z" fill="#C2B7BC"/>
</g>
<path d="M511.627 532.13C513.26 539.016 505.692 546.269 494.738 548.345C483.771 550.421 473.574 546.509 471.94 539.636C470.307 532.75 477.876 525.498 488.83 523.422C499.797 521.346 509.994 525.257 511.627 532.13Z" fill="white" stroke="#363636" stroke-linecap="round" stroke-linejoin="round"/>
<path d="M512.835 611.215C515.225 617.329 512.238 623.81 506.17 625.696C500.102 627.582 493.264 624.164 490.874 618.051C488.484 611.937 491.472 605.456 497.54 603.57C503.608 601.684 510.445 605.102 512.835 611.215Z" fill="#363636"/>
<path d="M487.356 614.114L435.812 650.163C435.812 650.163 431.125 654.91 436.688 654.885C442.265 654.859 497.434 623.43 497.434 623.43C497.434 623.43 505.427 613.431 487.343 614.101L487.356 614.114Z" fill="#363636"/>
<path d="M634.977 702.68C636.477 695.642 622.92 676.187 614.184 673.023C614.184 673.023 598.808 665.023 586.035 662.517C573.262 660.011 549.508 657.758 530.229 648.657L510.95 639.543C510.95 639.543 508.241 621.595 506.648 616.165C505.042 610.734 501.324 606.962 492.401 606.456C483.465 605.95 472.803 601.773 469.643 604.266C466.47 606.76 467.891 614.848 467.891 614.848L455.131 621.658C449.953 621.367 443.486 620.975 441.362 620.975C437.936 620.975 433.94 626.582 439.078 628.113C444.217 629.645 460.774 630.658 460.774 630.658C468.926 639.227 476.508 648.91 485.165 656.998C489.865 661.391 497.965 662.036 502.134 665.745C502.134 665.745 552.642 702.338 568.748 710.021C596.578 723.287 627.408 725.401 633.622 722.185C639.836 718.983 633.516 709.718 635.016 702.693L634.977 702.68Z" fill="white" stroke="#363636" stroke-linecap="round" stroke-linejoin="round"/>
<g style="mix-blend-mode:multiply">
<path d="M609.245 673.162C609.245 673.162 617.158 688.212 618.818 698.63C620.477 709.034 609.656 715.73 600.495 714.983C591.333 714.237 558.033 703.085 558.033 703.085C558.033 703.085 589.076 721.173 611.316 721.679C633.569 722.173 638.787 725.401 642.12 718.705C645.453 712.009 643.78 689.706 633.795 682.276C623.797 674.846 612.976 666.302 609.231 673.175L609.245 673.162Z" fill="#C2B7BC"/>
</g>
<path d="M682.418 701.832C682.099 700.389 681.86 698.933 681.661 697.478C680.877 691.68 677.571 676.858 663.975 664.96C646.674 649.809 633.303 650.935 629.108 652.581C624.899 654.226 616.162 662.226 616.162 662.226C616.162 662.226 601.65 665.175 609.244 673.162C616.839 681.149 629.267 693.187 630.489 704.591C631.71 715.996 630.781 729.16 645.36 725.261C659.938 721.375 662.182 718.667 674.584 716.54C684.223 714.895 683.307 705.806 682.404 701.832H682.418Z" fill="white" stroke="#363636" stroke-linecap="round" stroke-linejoin="round"/>
<path d="M463.429 617.582C463.429 617.582 479.681 617.582 481.66 619.342C483.625 621.101 484.116 622.418 484.116 622.418" stroke="#363636" stroke-linecap="round" stroke-linejoin="round"/>
<path d="M467.864 614.836C467.864 614.836 474.264 613.62 482.151 613.62C490.038 613.62 493.968 615.823 493.968 615.823" stroke="#363636" stroke-linecap="round" stroke-linejoin="round"/>
<path d="M623.531 665.96C623.531 665.96 650.166 675.808 651.096 689.744" stroke="#363636" stroke-linecap="round" stroke-linejoin="round"/>
<path d="M653.858 697.946C653.858 697.946 654.774 706.148 654.774 710.249" stroke="#363636" stroke-linecap="round" stroke-linejoin="round"/>
<path d="M615.79 498.638C615.79 498.638 626.93 501.473 634.087 494.372Z" fill="white"/>
<path d="M615.79 498.638C615.79 498.638 626.93 501.473 634.087 494.372" stroke="#363636" stroke-linecap="round" stroke-linejoin="round"/>
<path d="M599.578 769.285C599.578 769.285 603.535 814.106 607.505 818.814C611.462 823.536 620.716 829.434 620.716 829.434" stroke="white" stroke-linecap="round" stroke-linejoin="round"/>
<path d="M645.798 811.739C645.798 811.739 624.673 836.51 624.673 842.396C624.673 848.281 625.988 930.746 625.988 930.746" stroke="white" stroke-miterlimit="10" stroke-linecap="round"/>
<path d="M713.155 751.589C713.155 751.589 695.987 772.816 656.367 772.816L653.804 763.31" stroke="white" stroke-linecap="round" stroke-linejoin="round"/>
<path d="M463.191 795.613H223.834V932.885H463.191V795.613Z" fill="white" stroke="#363636" stroke-miterlimit="10"/>
<path d="M255.754 932.886V839.307C255.754 835.371 252.182 832.181 247.774 832.181C243.366 832.181 239.794 835.371 239.794 839.307V932.886H255.754Z" fill="#51D289" stroke="#363636" stroke-miterlimit="10"/>
<path d="M434.471 932.886V848.813C434.471 844.877 430.899 841.687 426.491 841.687C422.083 841.687 418.511 844.877 418.511 848.813V932.886H434.471Z" fill="#51D289" stroke="#363636" stroke-miterlimit="10"/>
<path d="M290.86 932.886V850.712C290.86 846.775 287.288 843.585 282.88 843.585C278.472 843.585 274.9 846.775 274.9 850.712V932.886H290.86Z" fill="#51D289" stroke="#363636" stroke-miterlimit="10"/>
<path d="M337.717 932.885V857.863C337.717 852.598 332.937 848.345 327.055 848.345C321.16 848.345 316.393 852.61 316.393 857.863V932.885H337.717Z" fill="#51D289" stroke="#363636" stroke-miterlimit="10"/>
<path d="M394.094 932.885V856.914C394.094 851.648 389.314 847.395 383.432 847.395C377.537 847.395 372.77 851.661 372.77 856.914V932.885H394.094Z" fill="#51D289" stroke="#363636" stroke-miterlimit="10"/>
<path d="M463.191 795.613H223.834V932.885H463.191V795.613Z" stroke="#363636" stroke-miterlimit="10"/>
<path d="M343.519 835.991C409.612 835.991 463.19 817.913 463.19 795.613C463.19 773.313 409.612 755.235 343.519 755.235C277.426 755.235 223.848 773.313 223.848 795.613C223.848 817.913 277.426 835.991 343.519 835.991Z" fill="white" stroke="#363636" stroke-linecap="round" stroke-linejoin="round"/>
<path d="M343.519 835.991C409.612 835.991 463.19 817.913 463.19 795.613C463.19 773.313 409.612 755.235 343.519 755.235C277.426 755.235 223.848 773.313 223.848 795.613C223.848 817.913 277.426 835.991 343.519 835.991Z" stroke="#363636" stroke-linecap="round" stroke-linejoin="round"/>
<g style="mix-blend-mode:multiply">
<path d="M336.07 823.422C384.593 823.422 423.928 811.396 423.928 796.562C423.928 781.728 384.593 769.702 336.07 769.702C287.548 769.702 248.212 781.728 248.212 796.562C248.212 811.396 287.548 823.422 336.07 823.422Z" fill="#C2B7BC"/>
</g>
<path d="M467.559 694.237C467.559 683.225 465.328 673.82 461.133 665.618C460.508 665.201 458.371 663.796 454.68 661.353C450.232 658.416 445.797 658.783 445.797 658.783C445.797 658.783 442.836 653.302 439.875 650.454C436.914 647.619 430.992 649.214 430.992 649.214C430.992 649.214 428.775 646.417 425.801 643.581C422.84 640.746 412.47 640.721 412.47 640.721C412.47 640.721 408.766 631.873 405.061 627C403.415 624.835 402.525 623.785 402.02 623.266C388.331 617.937 380.643 617.139 362.984 612.633C323.563 602.494 313.91 597.912 313.91 585.343C313.91 576.002 323.165 569.787 342.072 571.027C342.51 571.053 342.948 571.103 343.4 571.141L390.987 608.076L420.928 601.001L459.951 554.344C435.015 534.75 405.247 522.017 369.039 516.042V493.41L324.784 490.499L294.843 497.575L302.013 510.992L302.664 515.612C260.826 523.574 235.081 549.459 235.081 587.343C235.081 638.708 281.34 655.758 341.275 671.909C379.488 682.326 389.141 684.757 389.141 696.604C389.141 707.376 377.882 713.11 356.558 711.705C323.975 709.566 293.396 697.136 265.247 675.529L235.306 682.605L213.969 727.198L247.429 741.349L250.536 739.286C272.829 752.159 298.043 761.07 324.771 766.019V789.727L335.619 790.436L339.084 799.701L369.026 792.626L369.596 769.981C429.598 769.462 467.585 742.185 467.585 694.199L467.559 694.237Z" fill="white" stroke="#363636" stroke-linecap="round" stroke-linejoin="round"/>
<g style="mix-blend-mode:multiply">
<path d="M459.911 554.357L418.989 564.04L390.96 608.076L420.901 601.001L459.911 554.357Z" fill="#C2B7BC"/>
</g>
<g style="mix-blend-mode:multiply">
<path d="M339.071 799.739L368.999 792.664V770.019L336.933 773.437L339.071 799.739Z" fill="#C2B7BC"/>
</g>
<g style="mix-blend-mode:multiply">
<path d="M330.215 632.683C333.402 631.734 365.321 630.784 365.321 630.784L385.636 628.936L390.854 621.278L397.825 621.721C386.579 617.747 378.745 616.671 362.971 612.633C323.55 602.494 313.897 597.912 313.897 585.343C313.897 578.343 319.102 573.091 329.671 571.432C296.423 560.192 258.303 581.331 269.576 605.127C281.274 629.822 327.015 633.632 330.215 632.683Z" fill="#C2B7BC"/>
</g>
<g style="mix-blend-mode:multiply">
<path d="M356.531 711.73C323.948 709.591 293.369 697.161 265.221 675.555L235.28 682.63C235.28 682.63 245.105 705.832 282.336 720.084C319.566 734.337 359.997 724.831 365.308 721.034C368.879 718.489 371.96 713.806 373.606 710.996C368.933 711.895 363.223 712.161 356.518 711.73H356.531Z" fill="#C2B7BC"/>
</g>
<path d="M467.559 694.237C467.559 683.225 465.328 673.82 461.133 665.618C460.508 665.201 458.371 663.796 454.68 661.353C450.232 658.416 445.797 658.783 445.797 658.783C445.797 658.783 442.836 653.302 439.875 650.454C436.914 647.619 430.992 649.214 430.992 649.214C430.992 649.214 428.775 646.417 425.801 643.581C422.84 640.746 412.47 640.721 412.47 640.721C412.47 640.721 408.766 631.873 405.061 627C403.415 624.835 402.525 623.785 402.02 623.266C388.331 617.937 380.643 617.139 362.984 612.633C323.563 602.494 313.91 597.912 313.91 585.343C313.91 576.002 323.165 569.787 342.072 571.027C342.51 571.053 342.948 571.103 343.4 571.141L390.987 608.076L420.928 601.001L459.951 554.344C435.015 534.75 405.247 522.017 369.039 516.042V493.41L324.784 490.499L294.843 497.575L302.013 510.992L302.664 515.612C260.826 523.574 235.081 549.459 235.081 587.343C235.081 638.708 281.34 655.758 341.275 671.909C379.488 682.326 389.141 684.757 389.141 696.604C389.141 707.376 377.882 713.11 356.558 711.705C323.975 709.566 293.396 697.136 265.247 675.529L235.306 682.605L213.969 727.198L247.429 741.349L250.536 739.286C272.829 752.159 298.043 761.07 324.771 766.019V789.727L335.619 790.436L339.084 799.701L369.026 792.626L369.596 769.981C429.598 769.462 467.585 742.185 467.585 694.199L467.559 694.237Z" stroke="#363636" stroke-linecap="round" stroke-linejoin="round"/>
<path d="M424.752 668.441C420.304 665.504 415.869 665.871 415.869 665.871C415.869 665.871 412.908 660.391 409.947 657.543C406.986 654.707 401.064 656.302 401.064 656.302C401.064 656.302 398.847 653.505 395.873 650.67C392.912 647.834 382.542 647.809 382.542 647.809C382.542 647.809 378.838 638.961 375.133 634.088C373.487 631.923 372.597 630.873 372.093 630.354C358.403 625.025 350.716 624.228 333.056 619.721C293.635 609.583 283.982 605.001 283.982 592.431C283.982 583.09 293.237 576.875 312.144 578.116C337.093 579.748 365.241 589.862 390.987 608.089L430.01 561.433C405.074 541.839 375.306 529.105 339.098 523.131V500.499L294.843 497.587V520.219C240.139 522.371 205.14 550.243 205.14 594.431C205.14 645.796 251.399 662.846 311.334 678.997C349.547 689.415 359.2 691.845 359.2 703.693C359.2 714.464 347.941 720.198 326.617 718.793C294.033 716.654 263.455 704.224 235.306 682.618L191.862 726.109C220.024 750.235 255.82 765.88 294.843 773.107V790.081L339.098 799.714V777.082C399.431 776.74 437.658 749.438 437.658 701.3C437.658 690.288 435.427 680.883 431.231 672.681C430.607 672.264 428.47 670.859 424.778 668.416L424.752 668.441Z" fill="#51D289" stroke="#363636" stroke-linecap="round" stroke-linejoin="round"/>
<path d="M424.752 668.441C420.304 665.504 415.869 665.871 415.869 665.871C415.869 665.871 412.908 660.391 409.947 657.543C406.986 654.707 401.064 656.302 401.064 656.302C401.064 656.302 398.847 653.505 395.873 650.67C392.912 647.834 382.542 647.809 382.542 647.809C382.542 647.809 378.838 638.961 375.133 634.088C373.487 631.923 372.597 630.873 372.093 630.354C358.403 625.025 350.716 624.228 333.056 619.721C293.635 609.583 283.982 605.001 283.982 592.431C283.982 583.09 293.237 576.875 312.144 578.116C337.093 579.748 365.241 589.862 390.987 608.089L430.01 561.433C405.074 541.839 375.306 529.105 339.098 523.131V500.499L294.843 497.587V520.219C240.139 522.371 205.14 550.243 205.14 594.431C205.14 645.796 251.399 662.846 311.334 678.997C349.547 689.415 359.2 691.845 359.2 703.693C359.2 714.464 347.941 720.198 326.617 718.793C294.033 716.654 263.455 704.224 235.306 682.618L191.862 726.109C220.024 750.235 255.82 765.88 294.843 773.107V790.081L339.098 799.714V777.082C399.431 776.74 437.658 749.438 437.658 701.3C437.658 690.288 435.427 680.883 431.231 672.681C430.607 672.264 428.47 670.859 424.778 668.416L424.752 668.441Z" stroke="#363636" stroke-linecap="round" stroke-linejoin="round"/>
<path d="M429.983 561.433L449.023 556.61" stroke="#363636" stroke-linecap="round" stroke-linejoin="round"/>
<path d="M339.071 500.499L359.213 496.853" stroke="#363636" stroke-linecap="round" stroke-linejoin="round"/>
<path d="M339.071 523.131L359.213 519.65" stroke="#363636" stroke-linecap="round" stroke-linejoin="round"/>
<path d="M372.066 630.354L385.636 628.936L390.92 624.228L402.007 623.278" stroke="#363636" stroke-linecap="round" stroke-linejoin="round"/>
<path d="M431.191 672.707L435.812 669.036L442.862 668.251H447.257H456.95L461.132 665.631" stroke="#363636" stroke-linecap="round" stroke-linejoin="round"/>
<path d="M455.104 621.645C455.104 621.645 469.816 622.076 474.49 623.747" stroke="#363636" stroke-linecap="round" stroke-linejoin="round"/>
<path d="M551.022 753.754C551.022 753.754 564.592 780.006 588.332 795.157" stroke="white" stroke-linecap="round" stroke-linejoin="round"/>
<path d="M683.307 599.267C683.307 599.267 691.221 584.115 714.961 591.191" stroke="#363636" stroke-linecap="round" stroke-linejoin="round"/>
<path d="M685.578 652.783C685.578 652.783 702.533 657.834 696.89 680.048" stroke="#363636" stroke-linecap="round" stroke-linejoin="round"/>
<path d="M492.972 666.884C492.972 666.884 496.756 690.136 506.927 699.224C517.098 708.313 534.066 694.174 534.066 694.174" stroke="#363636" stroke-linecap="round" stroke-linejoin="round"/>
<path d="M435.52 656.112C435.52 657.087 434.63 657.884 433.541 657.884C432.453 657.884 431.563 657.1 431.563 656.112C431.563 655.125 432.453 654.34 433.541 654.34C434.63 654.34 435.52 655.138 435.52 656.112Z" fill="white" stroke="#363636" stroke-linecap="round" stroke-linejoin="round"/>
<path d="M427.062 625.721C428.616 625.721 429.877 626.848 429.877 628.24C429.877 629.632 428.616 630.759 427.062 630.759C425.509 630.759 424.247 629.632 424.247 628.24C424.247 626.848 425.509 625.721 427.062 625.721Z" fill="white" stroke="#363636" stroke-linecap="round" stroke-linejoin="round"/>
<path d="M417.675 655.226C419.228 655.226 420.49 656.353 420.49 657.745C420.49 659.138 419.228 660.264 417.675 660.264C416.121 660.264 414.86 659.138 414.86 657.745C414.86 656.353 416.121 655.226 417.675 655.226Z" fill="white" stroke="#363636" stroke-linecap="round" stroke-linejoin="round"/>
<path d="M430.78 638.67C430.78 639.645 429.89 640.442 428.801 640.442C427.713 640.442 426.823 639.657 426.823 638.67C426.823 637.683 427.713 636.898 428.801 636.898C429.89 636.898 430.78 637.683 430.78 638.67Z" fill="white" stroke="#363636" stroke-linecap="round" stroke-linejoin="round"/>
<path d="M399.976 638.67C399.976 639.645 399.086 640.442 397.997 640.442C396.909 640.442 396.019 639.657 396.019 638.67C396.019 637.683 396.909 636.898 397.997 636.898C399.086 636.898 399.976 637.683 399.976 638.67Z" fill="white" stroke="#363636" stroke-linecap="round" stroke-linejoin="round"/>
<path d="M612.126 768.538L617.45 810.334C617.45 810.334 614.595 818.751 607.505 818.814" stroke="white" stroke-linecap="round" stroke-linejoin="round"/>
<path d="M679.138 771.386C679.138 771.386 683.387 786.588 705.733 795.132" stroke="white" stroke-linecap="round" stroke-linejoin="round"/>
<path d="M642.97 763.323L646.302 774.474" stroke="white" stroke-linecap="round" stroke-linejoin="round"/>
</g>
</g>
</g>
<path d="M115.123 188.274C112.873 188.274 110.947 187.804 109.346 186.866C107.759 185.927 106.537 184.595 105.681 182.869C104.825 181.13 104.397 179.066 104.397 176.678C104.397 174.801 104.618 172.93 105.06 171.066C105.502 169.189 106.157 167.422 107.027 165.766C107.91 164.095 109.008 162.618 110.319 161.334C111.631 160.037 113.156 159.015 114.896 158.27C116.649 157.524 118.609 157.152 120.776 157.152C122.212 157.152 123.523 157.29 124.71 157.566C125.911 157.842 127.037 158.263 128.086 158.829L126.698 161.748C125.898 161.32 125.014 160.968 124.048 160.692C123.095 160.402 122.005 160.258 120.776 160.258C119.078 160.258 117.553 160.568 116.2 161.189C114.847 161.797 113.66 162.639 112.638 163.716C111.631 164.779 110.789 166.007 110.112 167.401C109.45 168.796 108.946 170.28 108.601 171.853C108.269 173.413 108.104 174.994 108.104 176.595C108.104 179.246 108.773 181.344 110.112 182.89C111.465 184.422 113.336 185.188 115.724 185.188C116.925 185.188 118.084 185.071 119.202 184.836C120.334 184.602 121.432 184.305 122.495 183.946V187.011C121.418 187.397 120.307 187.701 119.161 187.922C118.029 188.156 116.683 188.274 115.123 188.274ZM134.422 188.274C133.193 188.274 132.117 187.977 131.192 187.383C130.267 186.79 129.549 185.913 129.038 184.754C128.527 183.594 128.272 182.179 128.272 180.509C128.272 178.838 128.445 177.23 128.79 175.684C129.149 174.138 129.652 172.702 130.301 171.377C130.95 170.052 131.73 168.892 132.641 167.898C133.566 166.904 134.601 166.131 135.747 165.579C136.893 165.027 138.128 164.751 139.454 164.751C140.475 164.751 141.359 164.944 142.104 165.331C142.863 165.717 143.491 166.228 143.988 166.863C144.499 167.484 144.899 168.147 145.189 168.851H145.396L146.722 165.165H149.351L144.547 187.859H141.793L142.415 183.47H142.249C141.628 184.298 140.917 185.078 140.116 185.81C139.316 186.541 138.439 187.135 137.486 187.59C136.534 188.046 135.512 188.274 134.422 188.274ZM135.54 185.416C136.603 185.416 137.652 185.03 138.687 184.257C139.737 183.47 140.675 182.414 141.504 181.088C142.346 179.749 142.988 178.245 143.429 176.574C143.65 175.76 143.795 175.014 143.864 174.338C143.947 173.648 143.988 173.006 143.988 172.412C143.988 170.99 143.609 169.845 142.849 168.975C142.104 168.092 141.083 167.65 139.785 167.65C138.86 167.65 137.99 167.884 137.176 168.354C136.361 168.809 135.623 169.451 134.96 170.28C134.311 171.094 133.752 172.047 133.283 173.137C132.814 174.214 132.448 175.387 132.186 176.657C131.937 177.927 131.813 179.232 131.813 180.571C131.813 182.158 132.137 183.366 132.786 184.194C133.435 185.009 134.353 185.416 135.54 185.416ZM151.36 187.859L158.235 155.64H161.672L154.818 187.859H151.36ZM171.404 188.274C169.72 188.274 168.243 187.956 166.973 187.321C165.717 186.672 164.736 185.72 164.032 184.464C163.342 183.207 162.997 181.648 162.997 179.784C162.997 178.169 163.17 176.616 163.515 175.125C163.874 173.634 164.391 172.26 165.068 171.004C165.744 169.748 166.565 168.651 167.532 167.712C168.498 166.773 169.596 166.049 170.824 165.538C172.067 165.013 173.419 164.751 174.883 164.751C175.863 164.751 176.836 164.848 177.802 165.041C178.782 165.22 179.666 165.483 180.453 165.828L179.48 168.727C178.9 168.45 178.216 168.202 177.43 167.981C176.643 167.76 175.801 167.65 174.903 167.65C173.647 167.65 172.501 167.967 171.466 168.602C170.445 169.237 169.561 170.121 168.816 171.253C168.084 172.371 167.518 173.655 167.118 175.104C166.717 176.554 166.517 178.1 166.517 179.742C166.517 180.916 166.724 181.93 167.138 182.786C167.552 183.628 168.146 184.277 168.919 184.733C169.706 185.188 170.645 185.416 171.735 185.416C172.743 185.416 173.689 185.278 174.572 185.002C175.469 184.726 176.346 184.395 177.202 184.008V186.948C176.443 187.335 175.573 187.652 174.593 187.901C173.626 188.149 172.563 188.274 171.404 188.274ZM188.156 188.274C187.01 188.274 186.009 188.06 185.153 187.632C184.297 187.204 183.635 186.576 183.165 185.747C182.71 184.905 182.482 183.877 182.482 182.662C182.482 182.055 182.523 181.468 182.606 180.902C182.703 180.322 182.806 179.722 182.917 179.101L185.919 165.165H189.398L186.313 179.494C186.202 180.088 186.113 180.619 186.044 181.088C185.988 181.544 185.961 181.951 185.961 182.31C185.961 183.29 186.209 184.056 186.706 184.609C187.217 185.147 188.024 185.416 189.129 185.416C190.164 185.416 191.248 185.064 192.38 184.36C193.526 183.656 194.582 182.552 195.548 181.047C196.528 179.529 197.273 177.561 197.784 175.146L199.896 165.165H203.292L198.488 187.859H195.651L196.21 183.47H196.024C195.5 184.188 194.865 184.919 194.119 185.665C193.374 186.396 192.511 187.017 191.531 187.528C190.551 188.025 189.426 188.274 188.156 188.274ZM205.736 187.859L212.61 155.64H216.047L209.194 187.859H205.736ZM223.502 188.274C222.273 188.274 221.196 187.977 220.272 187.383C219.347 186.79 218.629 185.913 218.118 184.754C217.607 183.594 217.352 182.179 217.352 180.509C217.352 178.838 217.524 177.23 217.87 175.684C218.229 174.138 218.732 172.702 219.381 171.377C220.03 170.052 220.81 168.892 221.721 167.898C222.646 166.904 223.681 166.131 224.827 165.579C225.973 165.027 227.208 164.751 228.534 164.751C229.555 164.751 230.439 164.944 231.184 165.331C231.943 165.717 232.571 166.228 233.068 166.863C233.579 167.484 233.979 168.147 234.269 168.851H234.476L235.802 165.165H238.431L233.627 187.859H230.873L231.495 183.47H231.329C230.708 184.298 229.997 185.078 229.196 185.81C228.395 186.541 227.519 187.135 226.566 187.59C225.614 188.046 224.592 188.274 223.502 188.274ZM224.62 185.416C225.683 185.416 226.732 185.03 227.767 184.257C228.817 183.47 229.755 182.414 230.583 181.088C231.426 179.749 232.067 178.245 232.509 176.574C232.73 175.76 232.875 175.014 232.944 174.338C233.027 173.648 233.068 173.006 233.068 172.412C233.068 170.99 232.689 169.845 231.929 168.975C231.184 168.092 230.162 167.65 228.865 167.65C227.94 167.65 227.07 167.884 226.256 168.354C225.441 168.809 224.703 169.451 224.04 170.28C223.391 171.094 222.832 172.047 222.363 173.137C221.894 174.214 221.528 175.387 221.265 176.657C221.017 177.927 220.893 179.232 220.893 180.571C220.893 182.158 221.217 183.366 221.866 184.194C222.515 185.009 223.433 185.416 224.62 185.416ZM246.942 188.274C245.437 188.274 244.181 187.915 243.173 187.197C242.179 186.465 241.682 185.216 241.682 183.449C241.682 183.021 241.71 182.559 241.765 182.062C241.82 181.551 241.91 181.026 242.034 180.488L244.705 167.795H241.206L241.537 166.2L245.306 164.751L247.791 159.947H249.841L248.702 165.165H254.541L254.003 167.795H248.184L245.492 180.529C245.396 180.916 245.306 181.33 245.223 181.772C245.154 182.213 245.12 182.635 245.12 183.035C245.12 183.725 245.299 184.305 245.658 184.774C246.017 185.23 246.617 185.458 247.459 185.458C247.984 185.458 248.481 185.409 248.95 185.313C249.433 185.216 249.944 185.078 250.483 184.898V187.549C250.137 187.715 249.613 187.873 248.909 188.025C248.219 188.191 247.563 188.274 246.942 188.274ZM263.569 188.274C261.871 188.274 260.408 187.935 259.179 187.259C257.951 186.569 257.005 185.589 256.343 184.319C255.694 183.035 255.369 181.503 255.369 179.722C255.369 177.886 255.632 176.084 256.156 174.317C256.695 172.537 257.461 170.928 258.455 169.493C259.449 168.043 260.643 166.891 262.037 166.035C263.445 165.179 265.019 164.751 266.758 164.751C268.842 164.751 270.423 165.22 271.5 166.159C272.577 167.084 273.115 168.361 273.115 169.99C273.115 171.135 272.846 172.191 272.307 173.158C271.783 174.124 270.968 174.966 269.864 175.684C268.773 176.388 267.386 176.94 265.702 177.341C264.032 177.727 262.051 177.92 259.759 177.92H258.972C258.945 178.169 258.917 178.445 258.889 178.749C258.876 179.052 258.869 179.335 258.869 179.598C258.869 181.42 259.31 182.848 260.194 183.884C261.077 184.905 262.403 185.416 264.17 185.416C265.26 185.416 266.289 185.264 267.255 184.961C268.235 184.643 269.257 184.229 270.32 183.718V186.679C269.298 187.149 268.27 187.535 267.234 187.839C266.199 188.129 264.977 188.274 263.569 188.274ZM259.469 175.104H259.966C261.733 175.104 263.355 174.952 264.832 174.649C266.309 174.331 267.497 173.82 268.394 173.116C269.291 172.399 269.74 171.446 269.74 170.259C269.74 169.486 269.477 168.851 268.953 168.354C268.428 167.857 267.628 167.608 266.551 167.608C265.598 167.608 264.66 167.905 263.735 168.499C262.81 169.079 261.968 169.928 261.209 171.046C260.463 172.164 259.883 173.517 259.469 175.104ZM293.325 188.274C291.82 188.274 290.502 188.163 289.37 187.942C288.238 187.721 287.189 187.383 286.222 186.928V183.47C287.092 183.911 288.113 184.319 289.287 184.691C290.46 185.05 291.82 185.23 293.366 185.23C294.319 185.23 295.23 185.119 296.099 184.898C296.969 184.678 297.742 184.332 298.418 183.863C299.109 183.394 299.647 182.793 300.034 182.062C300.434 181.33 300.634 180.46 300.634 179.453C300.634 178.638 300.455 177.92 300.096 177.299C299.751 176.664 299.198 176.057 298.439 175.477C297.68 174.883 296.686 174.248 295.457 173.572C294.408 172.951 293.463 172.302 292.621 171.625C291.792 170.935 291.137 170.135 290.653 169.224C290.17 168.299 289.929 167.18 289.929 165.869C289.929 164.461 290.191 163.219 290.716 162.142C291.24 161.051 291.958 160.14 292.869 159.409C293.794 158.663 294.85 158.104 296.037 157.731C297.238 157.345 298.508 157.152 299.847 157.152C301.435 157.152 302.815 157.31 303.989 157.628C305.162 157.945 306.294 158.373 307.384 158.912L306.038 161.893C305.265 161.479 304.334 161.107 303.243 160.775C302.166 160.43 301.034 160.258 299.847 160.258C298.978 160.258 298.163 160.375 297.404 160.61C296.658 160.83 296.003 161.169 295.437 161.624C294.871 162.08 294.429 162.646 294.111 163.322C293.794 163.985 293.635 164.758 293.635 165.641C293.635 166.539 293.801 167.284 294.132 167.878C294.477 168.471 294.974 169.01 295.623 169.493C296.286 169.976 297.1 170.5 298.066 171.066C299.295 171.784 300.379 172.502 301.317 173.22C302.256 173.924 302.988 174.745 303.512 175.684C304.037 176.609 304.299 177.775 304.299 179.183C304.299 180.702 304.03 182.034 303.492 183.18C302.967 184.312 302.215 185.257 301.235 186.017C300.254 186.762 299.095 187.328 297.756 187.715C296.417 188.087 294.94 188.274 293.325 188.274ZM307.985 187.859L312.81 165.165H315.626L315.087 169.555H315.294C315.791 168.837 316.392 168.112 317.096 167.381C317.8 166.635 318.614 166.014 319.539 165.517C320.478 165.006 321.541 164.751 322.728 164.751C324.329 164.751 325.544 165.213 326.372 166.138C327.201 167.063 327.684 168.326 327.822 169.928H327.967C328.519 169.085 329.182 168.271 329.955 167.484C330.728 166.684 331.604 166.028 332.584 165.517C333.578 165.006 334.669 164.751 335.856 164.751C337.609 164.751 338.962 165.227 339.915 166.18C340.867 167.132 341.343 168.513 341.343 170.321C341.343 170.97 341.302 171.584 341.219 172.164C341.15 172.744 341.04 173.337 340.888 173.945L337.947 187.859H334.469L337.533 173.572C337.657 172.951 337.747 172.412 337.802 171.957C337.871 171.501 337.906 171.066 337.906 170.652C337.906 169.727 337.657 168.996 337.161 168.457C336.664 167.919 335.897 167.65 334.862 167.65C334.13 167.65 333.371 167.85 332.584 168.25C331.798 168.651 331.031 169.258 330.286 170.072C329.554 170.873 328.892 171.888 328.298 173.116C327.705 174.345 327.228 175.788 326.869 177.444L324.654 187.859H321.216L324.24 173.634C324.364 172.999 324.454 172.454 324.509 171.998C324.578 171.529 324.612 171.129 324.612 170.797C324.612 169.817 324.385 169.051 323.929 168.499C323.473 167.933 322.728 167.65 321.693 167.65C320.961 167.65 320.195 167.843 319.394 168.23C318.607 168.616 317.841 169.224 317.096 170.052C316.35 170.88 315.667 171.936 315.046 173.22C314.425 174.504 313.928 176.05 313.555 177.858L311.443 187.859H307.985ZM351.966 188.274C350.737 188.274 349.66 187.977 348.736 187.383C347.811 186.79 347.093 185.913 346.582 184.754C346.071 183.594 345.816 182.179 345.816 180.509C345.816 178.838 345.988 177.23 346.334 175.684C346.692 174.138 347.196 172.702 347.845 171.377C348.494 170.052 349.274 168.892 350.185 167.898C351.11 166.904 352.145 166.131 353.291 165.579C354.437 165.027 355.672 164.751 356.998 164.751C358.019 164.751 358.903 164.944 359.648 165.331C360.407 165.717 361.035 166.228 361.532 166.863C362.043 167.484 362.443 168.147 362.733 168.851H362.94L364.266 165.165H366.895L362.091 187.859H359.337L359.959 183.47H359.793C359.172 184.298 358.461 185.078 357.66 185.81C356.859 186.541 355.983 187.135 355.03 187.59C354.078 188.046 353.056 188.274 351.966 188.274ZM353.084 185.416C354.147 185.416 355.196 185.03 356.231 184.257C357.28 183.47 358.219 182.414 359.047 181.088C359.89 179.749 360.531 178.245 360.973 176.574C361.194 175.76 361.339 175.014 361.408 174.338C361.491 173.648 361.532 173.006 361.532 172.412C361.532 170.99 361.153 169.845 360.393 168.975C359.648 168.092 358.626 167.65 357.329 167.65C356.404 167.65 355.534 167.884 354.72 168.354C353.905 168.809 353.167 169.451 352.504 170.28C351.855 171.094 351.296 172.047 350.827 173.137C350.358 174.214 349.992 175.387 349.729 176.657C349.481 177.927 349.357 179.232 349.357 180.571C349.357 182.158 349.681 183.366 350.33 184.194C350.979 185.009 351.897 185.416 353.084 185.416ZM368.945 187.859L373.77 165.165H376.586L376.048 169.555H376.255C376.834 168.768 377.456 168.009 378.118 167.277C378.781 166.532 379.533 165.924 380.375 165.455C381.231 164.986 382.211 164.751 383.316 164.751C383.73 164.751 384.151 164.779 384.579 164.834C385.007 164.875 385.407 164.951 385.78 165.061L385.034 168.147C384.662 168.064 384.296 168.002 383.937 167.96C383.592 167.919 383.233 167.898 382.86 167.898C381.811 167.898 380.838 168.174 379.94 168.727C379.043 169.265 378.236 169.99 377.518 170.901C376.814 171.812 376.213 172.826 375.716 173.945C375.233 175.063 374.867 176.202 374.619 177.361L372.403 187.859H368.945ZM392.178 188.274C390.673 188.274 389.417 187.915 388.409 187.197C387.416 186.465 386.919 185.216 386.919 183.449C386.919 183.021 386.946 182.559 387.001 182.062C387.057 181.551 387.146 181.026 387.271 180.488L389.942 167.795H386.442L386.774 166.2L390.542 164.751L393.027 159.947H395.077L393.938 165.165H399.777L399.239 167.795H393.42L390.729 180.529C390.632 180.916 390.542 181.33 390.459 181.772C390.39 182.213 390.356 182.635 390.356 183.035C390.356 183.725 390.535 184.305 390.894 184.774C391.253 185.23 391.854 185.458 392.696 185.458C393.22 185.458 393.717 185.409 394.187 185.313C394.67 185.216 395.181 185.078 395.719 184.898V187.549C395.374 187.715 394.849 187.873 394.145 188.025C393.455 188.191 392.799 188.274 392.178 188.274ZM408.806 188.274C407.108 188.274 405.644 187.935 404.416 187.259C403.187 186.569 402.242 185.589 401.579 184.319C400.93 183.035 400.606 181.503 400.606 179.722C400.606 177.886 400.868 176.084 401.393 174.317C401.931 172.537 402.697 170.928 403.691 169.493C404.685 168.043 405.879 166.891 407.273 166.035C408.681 165.179 410.255 164.751 411.994 164.751C414.079 164.751 415.659 165.22 416.736 166.159C417.813 167.084 418.351 168.361 418.351 169.99C418.351 171.135 418.082 172.191 417.544 173.158C417.019 174.124 416.205 174.966 415.1 175.684C414.01 176.388 412.622 176.94 410.938 177.341C409.268 177.727 407.287 177.92 404.995 177.92H404.209C404.181 178.169 404.153 178.445 404.126 178.749C404.112 179.052 404.105 179.335 404.105 179.598C404.105 181.42 404.547 182.848 405.43 183.884C406.314 184.905 407.639 185.416 409.406 185.416C410.497 185.416 411.525 185.264 412.491 184.961C413.471 184.643 414.493 184.229 415.556 183.718V186.679C414.534 187.149 413.506 187.535 412.471 187.839C411.435 188.129 410.214 188.274 408.806 188.274ZM404.706 175.104H405.203C406.97 175.104 408.592 174.952 410.069 174.649C411.546 174.331 412.733 173.82 413.63 173.116C414.527 172.399 414.976 171.446 414.976 170.259C414.976 169.486 414.714 168.851 414.189 168.354C413.665 167.857 412.864 167.608 411.787 167.608C410.835 167.608 409.896 167.905 408.971 168.499C408.046 169.079 407.204 169.928 406.445 171.046C405.7 172.164 405.12 173.517 404.706 175.104ZM420.836 187.859L425.661 165.165H428.477L427.938 169.555H428.145C428.725 168.768 429.346 168.009 430.009 167.277C430.672 166.532 431.424 165.924 432.266 165.455C433.122 164.986 434.102 164.751 435.206 164.751C435.621 164.751 436.042 164.779 436.47 164.834C436.898 164.875 437.298 164.951 437.671 165.061L436.925 168.147C436.552 168.064 436.187 168.002 435.828 167.96C435.483 167.919 435.124 167.898 434.751 167.898C433.702 167.898 432.729 168.174 431.831 168.727C430.934 169.265 430.126 169.99 429.409 170.901C428.705 171.812 428.104 172.826 427.607 173.945C427.124 175.063 426.758 176.202 426.51 177.361L424.294 187.859H420.836ZM434.585 193.326C435.11 192.18 435.627 190.993 436.138 189.765C436.649 188.55 437.132 187.356 437.588 186.182C438.043 185.009 438.45 183.925 438.809 182.931H442.537L442.702 183.408C442.247 184.415 441.715 185.492 441.108 186.638C440.514 187.784 439.879 188.929 439.203 190.075C438.54 191.221 437.878 192.305 437.215 193.326H434.585ZM109.201 246.274C107.697 246.274 106.378 246.163 105.246 245.942C104.114 245.721 103.065 245.383 102.099 244.928V241.47C102.968 241.911 103.99 242.319 105.163 242.691C106.337 243.05 107.697 243.23 109.243 243.23C110.195 243.23 111.106 243.119 111.976 242.898C112.846 242.678 113.619 242.332 114.295 241.863C114.985 241.394 115.524 240.793 115.91 240.062C116.31 239.33 116.511 238.46 116.511 237.453C116.511 236.638 116.331 235.92 115.972 235.299C115.627 234.664 115.075 234.057 114.316 233.477C113.556 232.883 112.563 232.248 111.334 231.572C110.285 230.951 109.339 230.302 108.497 229.625C107.669 228.935 107.013 228.135 106.53 227.224C106.047 226.299 105.805 225.18 105.805 223.869C105.805 222.461 106.068 221.219 106.592 220.142C107.117 219.051 107.835 218.14 108.746 217.409C109.671 216.663 110.727 216.104 111.914 215.731C113.115 215.345 114.385 215.152 115.724 215.152C117.311 215.152 118.692 215.31 119.865 215.628C121.038 215.945 122.17 216.373 123.261 216.912L121.915 219.893C121.142 219.479 120.21 219.107 119.12 218.775C118.043 218.43 116.911 218.258 115.724 218.258C114.854 218.258 114.04 218.375 113.28 218.61C112.535 218.83 111.879 219.169 111.313 219.624C110.747 220.08 110.306 220.646 109.988 221.322C109.671 221.985 109.512 222.758 109.512 223.641C109.512 224.539 109.677 225.284 110.009 225.878C110.354 226.471 110.851 227.01 111.5 227.493C112.162 227.976 112.977 228.5 113.943 229.066C115.172 229.784 116.255 230.502 117.194 231.22C118.133 231.924 118.864 232.745 119.389 233.684C119.913 234.609 120.176 235.775 120.176 237.183C120.176 238.702 119.907 240.034 119.368 241.18C118.844 242.312 118.091 243.257 117.111 244.017C116.131 244.762 114.971 245.328 113.632 245.715C112.293 246.087 110.816 246.274 109.201 246.274ZM121.749 256.006L128.686 223.165H131.502L130.943 227.576H131.088C131.737 226.72 132.448 225.933 133.221 225.215C134.008 224.483 134.864 223.897 135.789 223.455C136.727 223.013 137.749 222.792 138.853 222.792C140.095 222.792 141.179 223.089 142.104 223.683C143.029 224.262 143.747 225.132 144.258 226.292C144.782 227.437 145.044 228.866 145.044 230.578C145.044 232.207 144.879 233.794 144.547 235.341C144.23 236.873 143.761 238.302 143.139 239.627C142.518 240.938 141.752 242.098 140.841 243.106C139.944 244.099 138.915 244.879 137.756 245.445C136.596 245.998 135.319 246.274 133.925 246.274C132.862 246.274 131.944 246.087 131.171 245.715C130.412 245.328 129.77 244.824 129.245 244.203C128.734 243.582 128.327 242.912 128.024 242.194H127.837C127.782 242.705 127.692 243.375 127.568 244.203C127.458 245.017 127.34 245.701 127.216 246.253L125.145 256.006H121.749ZM133.676 243.416C134.643 243.416 135.526 243.175 136.327 242.691C137.141 242.208 137.866 241.553 138.501 240.724C139.15 239.882 139.695 238.909 140.137 237.805C140.592 236.7 140.938 235.527 141.172 234.284C141.407 233.042 141.524 231.779 141.524 230.495C141.524 228.894 141.2 227.686 140.551 226.872C139.916 226.057 138.964 225.65 137.694 225.65C137.031 225.65 136.361 225.815 135.685 226.147C135.009 226.464 134.353 226.92 133.718 227.513C133.083 228.093 132.489 228.783 131.937 229.584C131.385 230.385 130.902 231.268 130.488 232.235C130.087 233.201 129.77 234.222 129.535 235.299C129.3 236.376 129.183 237.48 129.183 238.612C129.183 240.062 129.549 241.228 130.281 242.112C131.026 242.981 132.158 243.416 133.676 243.416ZM157.468 246.274C155.77 246.274 154.307 245.935 153.079 245.259C151.85 244.569 150.904 243.589 150.242 242.319C149.593 241.035 149.269 239.503 149.269 237.722C149.269 235.886 149.531 234.084 150.055 232.317C150.594 230.537 151.36 228.928 152.354 227.493C153.348 226.043 154.542 224.891 155.936 224.035C157.344 223.179 158.918 222.751 160.657 222.751C162.742 222.751 164.322 223.22 165.399 224.159C166.476 225.084 167.014 226.361 167.014 227.99C167.014 229.135 166.745 230.191 166.207 231.158C165.682 232.124 164.868 232.966 163.763 233.684C162.673 234.388 161.285 234.94 159.601 235.341C157.931 235.727 155.95 235.92 153.658 235.92H152.871C152.844 236.169 152.816 236.445 152.789 236.749C152.775 237.052 152.768 237.335 152.768 237.598C152.768 239.42 153.21 240.848 154.093 241.884C154.977 242.905 156.302 243.416 158.069 243.416C159.159 243.416 160.188 243.264 161.154 242.961C162.134 242.643 163.156 242.229 164.219 241.718V244.679C163.197 245.149 162.169 245.535 161.133 245.839C160.098 246.129 158.876 246.274 157.468 246.274ZM153.368 233.104H153.865C155.632 233.104 157.254 232.952 158.731 232.649C160.209 232.331 161.396 231.82 162.293 231.116C163.19 230.399 163.639 229.446 163.639 228.259C163.639 227.486 163.377 226.851 162.852 226.354C162.328 225.857 161.527 225.608 160.45 225.608C159.498 225.608 158.559 225.905 157.634 226.499C156.709 227.079 155.867 227.928 155.108 229.046C154.362 230.164 153.783 231.517 153.368 233.104ZM169.354 245.859L174.22 223.061H177.264L176.726 227.431H176.767C177.292 226.713 177.92 225.988 178.651 225.256C179.397 224.511 180.259 223.89 181.24 223.393C182.233 222.882 183.359 222.627 184.615 222.627C185.83 222.627 186.872 222.854 187.741 223.31C188.611 223.752 189.281 224.401 189.75 225.256C190.219 226.098 190.454 227.12 190.454 228.321C190.454 228.956 190.406 229.598 190.309 230.247C190.212 230.896 190.109 231.475 189.998 231.986L186.975 245.859H183.31L186.375 231.531C186.499 230.909 186.596 230.378 186.665 229.936C186.748 229.494 186.789 229.08 186.789 228.694C186.789 227.727 186.527 226.996 186.002 226.499C185.478 226.002 184.704 225.753 183.683 225.753C182.675 225.753 181.612 226.098 180.494 226.789C179.376 227.479 178.341 228.569 177.388 230.06C176.436 231.537 175.697 233.47 175.173 235.858L173.04 245.859H169.354ZM200.952 246.274C199.71 246.274 198.626 245.984 197.701 245.404C196.776 244.824 196.059 243.961 195.548 242.816C195.037 241.656 194.782 240.22 194.782 238.509C194.782 236.88 194.947 235.299 195.279 233.767C195.61 232.221 196.086 230.785 196.707 229.46C197.342 228.135 198.115 226.975 199.027 225.981C199.938 224.973 200.973 224.193 202.133 223.641C203.306 223.075 204.59 222.792 205.984 222.792C207.047 222.792 207.958 222.986 208.717 223.372C209.477 223.759 210.105 224.262 210.602 224.884C211.112 225.491 211.513 226.147 211.803 226.851H212.01C212.092 226.216 212.175 225.602 212.258 225.008C212.341 224.401 212.438 223.786 212.548 223.165C212.672 222.544 212.81 221.902 212.962 221.239L214.557 213.64H217.973L211.14 245.859H208.303L208.862 241.47H208.717C208.055 242.326 207.33 243.119 206.543 243.851C205.77 244.583 204.921 245.169 203.996 245.611C203.071 246.053 202.057 246.274 200.952 246.274ZM202.112 243.416C202.761 243.416 203.416 243.257 204.079 242.94C204.755 242.622 205.411 242.174 206.046 241.594C206.681 241 207.275 240.303 207.827 239.503C208.379 238.702 208.862 237.818 209.276 236.852C209.704 235.886 210.036 234.864 210.27 233.788C210.505 232.711 210.622 231.6 210.622 230.454C210.622 228.99 210.27 227.824 209.566 226.954C208.862 226.085 207.737 225.65 206.191 225.65C205.239 225.65 204.355 225.891 203.541 226.375C202.74 226.858 202.015 227.52 201.366 228.362C200.718 229.204 200.165 230.178 199.71 231.282C199.268 232.373 198.923 233.546 198.675 234.802C198.44 236.045 198.323 237.301 198.323 238.571C198.323 240.158 198.64 241.366 199.275 242.194C199.91 243.009 200.856 243.416 202.112 243.416ZM234.186 245.859L232.882 215.586H236.319L236.982 234.533C237.023 235.665 237.023 236.831 236.982 238.032C236.954 239.22 236.906 240.365 236.837 241.47H236.961C237.361 240.393 237.824 239.185 238.348 237.846C238.887 236.493 239.453 235.202 240.046 233.974L248.66 215.586H252.201L253.133 233.912C253.216 235.182 253.271 236.507 253.299 237.887C253.326 239.268 253.333 240.469 253.319 241.49H253.444C253.692 240.786 253.954 240.048 254.23 239.275C254.507 238.488 254.796 237.687 255.1 236.873C255.404 236.058 255.728 235.244 256.073 234.429L264.294 215.586H268L254.272 245.859H250.71L249.716 225.795C249.675 225.187 249.64 224.552 249.613 223.89C249.585 223.227 249.565 222.571 249.551 221.923C249.551 221.274 249.551 220.666 249.551 220.1H249.427C249.164 220.929 248.854 221.764 248.495 222.606C248.136 223.448 247.66 224.518 247.066 225.815L237.769 245.859H234.186ZM265.619 245.859L270.444 223.165H273.902L269.077 245.859H265.619ZM273.343 219.189C272.791 219.189 272.328 219.031 271.955 218.713C271.596 218.382 271.417 217.919 271.417 217.326C271.417 216.87 271.507 216.442 271.686 216.042C271.879 215.642 272.149 215.324 272.494 215.089C272.853 214.841 273.287 214.717 273.798 214.717C274.406 214.717 274.861 214.875 275.165 215.193C275.469 215.51 275.62 215.952 275.62 216.518C275.62 217.333 275.386 217.981 274.916 218.465C274.447 218.948 273.922 219.189 273.343 219.189ZM281.75 246.274C280.369 246.274 279.154 246.136 278.105 245.859C277.07 245.583 276.166 245.238 275.393 244.824V241.635C276.124 242.077 277.049 242.491 278.167 242.878C279.299 243.264 280.459 243.458 281.646 243.458C282.819 243.458 283.793 243.299 284.566 242.981C285.353 242.664 285.939 242.229 286.326 241.677C286.726 241.111 286.926 240.455 286.926 239.71C286.926 239.116 286.795 238.605 286.533 238.177C286.284 237.736 285.87 237.308 285.29 236.894C284.724 236.479 283.965 236.003 283.013 235.465C281.95 234.871 281.052 234.271 280.321 233.663C279.589 233.056 279.03 232.393 278.644 231.675C278.271 230.944 278.085 230.095 278.085 229.129C278.085 227.831 278.402 226.706 279.037 225.753C279.672 224.801 280.562 224.062 281.708 223.538C282.868 223.013 284.221 222.751 285.767 222.751C287.133 222.751 288.396 222.91 289.556 223.227C290.716 223.531 291.716 223.883 292.558 224.283L291.44 227.037C290.722 226.692 289.901 226.375 288.976 226.085C288.051 225.795 286.981 225.65 285.767 225.65C284.469 225.65 283.434 225.947 282.661 226.54C281.901 227.134 281.522 227.934 281.522 228.942C281.522 229.467 281.632 229.936 281.853 230.35C282.088 230.764 282.488 231.178 283.054 231.593C283.62 231.993 284.393 232.462 285.373 233.001C286.326 233.553 287.182 234.119 287.941 234.699C288.714 235.265 289.321 235.92 289.763 236.666C290.219 237.397 290.446 238.302 290.446 239.378C290.446 240.855 290.094 242.112 289.39 243.147C288.686 244.168 287.679 244.948 286.367 245.487C285.07 246.011 283.53 246.274 281.75 246.274ZM303.74 246.274C302.042 246.274 300.579 245.935 299.35 245.259C298.122 244.569 297.176 243.589 296.513 242.319C295.865 241.035 295.54 239.503 295.54 237.722C295.54 235.886 295.802 234.084 296.327 232.317C296.865 230.537 297.632 228.928 298.625 227.493C299.619 226.043 300.813 224.891 302.208 224.035C303.616 223.179 305.189 222.751 306.929 222.751C309.013 222.751 310.594 223.22 311.671 224.159C312.747 225.084 313.286 226.361 313.286 227.99C313.286 229.135 313.017 230.191 312.478 231.158C311.954 232.124 311.139 232.966 310.035 233.684C308.944 234.388 307.557 234.94 305.873 235.341C304.202 235.727 302.222 235.92 299.93 235.92H299.143C299.116 236.169 299.088 236.445 299.06 236.749C299.047 237.052 299.04 237.335 299.04 237.598C299.04 239.42 299.481 240.848 300.365 241.884C301.248 242.905 302.574 243.416 304.341 243.416C305.431 243.416 306.46 243.264 307.426 242.961C308.406 242.643 309.427 242.229 310.49 241.718V244.679C309.469 245.149 308.44 245.535 307.405 245.839C306.37 246.129 305.148 246.274 303.74 246.274ZM299.64 233.104H300.137C301.904 233.104 303.526 232.952 305.003 232.649C306.48 232.331 307.667 231.82 308.565 231.116C309.462 230.399 309.911 229.446 309.911 228.259C309.911 227.486 309.648 226.851 309.124 226.354C308.599 225.857 307.799 225.608 306.722 225.608C305.769 225.608 304.831 225.905 303.906 226.499C302.981 227.079 302.139 227.928 301.379 229.046C300.634 230.164 300.054 231.517 299.64 233.104ZM315.771 245.859L320.595 223.165H323.411L322.873 227.555H323.08C323.66 226.768 324.281 226.009 324.944 225.277C325.606 224.532 326.359 223.924 327.201 223.455C328.057 222.986 329.037 222.751 330.141 222.751C330.555 222.751 330.976 222.779 331.404 222.834C331.832 222.875 332.232 222.951 332.605 223.061L331.86 226.147C331.487 226.064 331.121 226.002 330.762 225.96C330.417 225.919 330.058 225.898 329.685 225.898C328.636 225.898 327.663 226.174 326.766 226.727C325.869 227.265 325.061 227.99 324.343 228.901C323.639 229.812 323.039 230.826 322.542 231.945C322.058 233.063 321.693 234.202 321.444 235.361L319.229 245.859H315.771ZM345.319 246.439C344.67 246.439 344.166 246.253 343.807 245.88C343.448 245.521 343.269 245.011 343.269 244.348C343.269 243.478 343.511 242.712 343.994 242.049C344.491 241.373 345.264 241.035 346.313 241.035C346.893 241.035 347.362 241.214 347.721 241.573C348.08 241.932 348.259 242.457 348.259 243.147C348.259 243.961 348.018 244.714 347.535 245.404C347.051 246.094 346.313 246.439 345.319 246.439ZM355.962 246.439C355.313 246.439 354.809 246.253 354.451 245.88C354.092 245.521 353.912 245.011 353.912 244.348C353.912 243.478 354.154 242.712 354.637 242.049C355.134 241.373 355.907 241.035 356.956 241.035C357.536 241.035 358.005 241.214 358.364 241.573C358.723 241.932 358.903 242.457 358.903 243.147C358.903 243.961 358.661 244.714 358.178 245.404C357.695 246.094 356.956 246.439 355.962 246.439ZM366.605 246.439C365.957 246.439 365.453 246.253 365.094 245.88C364.735 245.521 364.555 245.011 364.555 244.348C364.555 243.478 364.797 242.712 365.28 242.049C365.777 241.373 366.55 241.035 367.599 241.035C368.179 241.035 368.648 241.214 369.007 241.573C369.366 241.932 369.546 242.457 369.546 243.147C369.546 243.961 369.304 244.714 368.821 245.404C368.338 246.094 367.599 246.439 366.605 246.439Z" fill="black"/>
<defs>
<clipPath id="clip0_361_771">
<rect width="923" height="543" fill="white" transform="translate(0 374)"/>
</clipPath>
</defs>
</svg>
